PathFileType	4	(X/Y/Z)	pose_F01_0-96.trc
DataRate	CameraRate	NumFrames	NumMarkers	Units	OrigDataRate	OrigDataStartFrame	OrigNumFrames
30	30	5	21	m	30	72	96
Frame#	Time	CHip			RHip			RKnee			RAnkle			RBigToe			RSmallToe			RHeel			LHip			LKnee			LAnkle			LBigToe			LSmallToe			LHeel			Neck			Nose			RShoulder			RElbow			RWrist			LShoulder			LElbow			LWrist			
		X1	Y1	Z1	X2	Y2	Z2	X3	Y3	Z3	X4	Y4	Z4	X5	Y5	Z5	X6	Y6	Z6	X7	Y7	Z7	X8	Y8	Z8	X9	Y9	Z9	X10	Y10	Z10	X11	Y11	Z11	X12	Y12	Z12	X13	Y13	Z13	X14	Y14	Z14	X15	Y15	Z15	X16	Y16	Z16	X17	Y17	Z17	X18	Y18	Z18	X19	Y19	Z19	X20	Y20	Z20	X21	Y21	Z21	
72	2.4	-0.16436228051475035	1.8232877236999558	-0.28932374867879557	-0.17674924593562755	1.8222970489857213	-0.2403869550977381	-0.18327778299546812	1.7028210371122119	-0.3399395596957737	-0.14240411222594151	1.5871924003384812	-0.433617844253112	-0.17297878512175344	1.5622579275048636	-0.47427191198965857	-0.17227776644034837	1.5696914055198776	-0.47604061199547215	-0.13391273273247523	1.5770612449832597	-0.4377015921112713	-0.15099403739210585	1.8221933808995379	-0.33840533768413894	-0.15386541287343736	1.7207714895990947	-0.3784228126235356	-0.129735530041768	1.6026211266317985	-0.46272237870068045	-0.14657780427024453	1.5696695375804741	-0.4492180283180614	-0.13912196483394998	1.5776228225834015	-0.4534876203238711	-0.12570967320932794	1.5886573728527313	-0.4427379761041027	-0.16117736264127555	1.9666804837994207	-0.3590230758503367	-0.18070848485512161	2.025864474221265	-0.4224630350564149	-0.1855076318445586	1.9752847858295457	-0.3000907760276083	-0.20320419490883856	1.9009153229539464	-0.228319422617163	-0.23164686393195677	1.8378472804405237	-0.21676640674239706	-0.1343842310037759	1.9645426711724883	-0.41686821270143887	-0.11723042767142189	1.8899692149456528	-0.40432102114104873	-0.1555334807501721	1.8536037029951347	-0.43945894748617415
73	2.433333333333333	-0.16167276758519722	1.8225242252100697	-0.27857299808395947	-0.17603544923602193	1.8206084923609722	-0.23665107544882347	-0.18327778299546812	1.7028210371122119	-0.3399395596957737	-0.14240411222594151	1.5871924003384812	-0.433617844253112	-0.17297878512175344	1.5622579275048636	-0.47427191198965857	-0.17227776644034837	1.5696914055198776	-0.47604061199547215	-0.13391273273247523	1.5770612449832597	-0.4377015921112713	-0.14830789354209784	1.822550510342775	-0.31862039507256656	-0.1521359842675044	1.7207254408293662	-0.37886847960539427	-0.129735530041768	1.6026211266317985	-0.46272237870068045	-0.1443492868406222	1.5702898314532883	-0.4498508500215769	-0.13706043814758842	1.5788911286240879	-0.4541016529429777	-0.12570967320932794	1.5886573728527313	-0.4427379761041027	-0.16292090811071516	1.9656076901243063	-0.35635569403348133	-0.18263153801053886	2.0258410337891055	-0.420079336072825	-0.18628539238650352	1.9725600452316927	-0.29412106576529223	-0.20099221643356877	1.8958738767114671	-0.22887923450997436	-0.23033351567176852	1.8355706730686798	-0.22167608747460468	-0.137179904277333	1.9610995909662596	-0.41709283392272317	-0.117369357471472	1.8873479789444931	-0.40385042136273946	-0.15758108511760552	1.8485701059895123	-0.4455807244650852
74	2.466666666666667	-0.15859007850392487	1.8226571567460463	-0.26825819963139785	-0.17399497311537043	1.82231403508407	-0.2298638592054295	-0.18327778299546812	1.7028210371122119	-0.3399395596957737	-0.14240411222594151	1.5871924003384812	-0.433617844253112	-0.17297878512175344	1.5622579275048636	-0.47427191198965857	-0.17227776644034837	1.5696914055198776	-0.47604061199547215	-0.13391273273247523	1.5770612449832597	-0.4377015921112713	-0.14737045933482762	1.8229963467887607	-0.31518827450598585	-0.15040655566157146	1.7206793920596375	-0.379314146587253	-0.129735530041768	1.6026211266317985	-0.46272237870068045	-0.14212076941099988	1.5709101253261024	-0.4504836717250923	-0.1349989114612269	1.580159434664774	-0.45471568556208436	-0.12570967320932794	1.5886573728527313	-0.4427379761041027	-0.16379543735351282	1.9665260435106997	-0.35071793835220105	-0.18641209978734996	2.02562341971168	-0.4156604808177099	-0.1880229260368139	1.9734288734461007	-0.29178075568238293	-0.201063533265739	1.8972169102536103	-0.22924756462942514	-0.22902016741158027	1.8332940656968357	-0.2265857682068123	-0.13734320793398372	1.9643721683814888	-0.40900704721172654	-0.12024026393810917	1.8914068999752305	-0.3967390654887403	-0.14812203529902848	1.8476001170213987	-0.42977286450943686
75	2.5	-0.15866113824100073	1.8237955687908995	-0.2630916323563334	-0.17036798027677652	1.8254196960987414	-0.21993882659371786	-0.18327778299546812	1.7028210371122119	-0.3399395596957737	-0.14240411222594151	1.5871924003384812	-0.433617844253112	-0.17297878512175344	1.5622579275048636	-0.47427191198965857	-0.17227776644034837	1.5696914055198776	-0.47604061199547215	-0.13391273273247523	1.5770612449832597	-0.4377015921112713	-0.1475408374927583	1.824610583496667	-0.310035575812	-0.14867712705563854	1.7206333432899088	-0.37975981356911165	-0.129735530041768	1.6026211266317985	-0.46272237870068045	-0.13989225198137753	1.5715304191989166	-0.4511164934286077	-0.13293738477486533	1.5814277407054604	-0.455329718181191	-0.12570967320932794	1.5886573728527313	-0.4427379761041027	-0.1664268275081728	1.9660559248162328	-0.34287583889300594	-0.18835583650126517	2.025447648284404	-0.41341912888989263	-0.18993765874925345	1.9722498777435051	-0.28956052035407753	-0.20091028571756858	1.8962574422849336	-0.22898203802153258	-0.23301814818675892	1.8325773053211987	-0.24623869757151431	-0.13815105495836047	1.9652266799806581	-0.39441728613214744	-0.12360769108074889	1.8916733968484163	-0.39150452915503076	-0.14793102722254062	1.8483245614821477	-0.4298857120309157
76	2.533333333333333	-0.15704270908390522	1.8250652401865801	-0.2655611770621223	-0.1687123307021281	1.8239558360655599	-0.22184268752891773	-0.18327778299546812	1.7028210371122119	-0.3399395596957737	-0.14240411222594151	1.5871924003384812	-0.433617844253112	-0.17297878512175344	1.5622579275048636	-0.47427191198965857	-0.17227776644034837	1.5696914055198776	-0.47604061199547215	-0.13391273273247523	1.5770612449832597	-0.4377015921112713	-0.1458358662347151	1.8254266056235382	-0.3126887193289713	-0.1469476984497056	1.72058729452018	-0.38020548055097036	-0.129735530041768	1.6026211266317985	-0.46272237870068045	-0.1376637345517552	1.5721507130717307	-0.45174931513212313	-0.13087585808850377	1.5826960467461468	-0.45594375080029764	-0.12570967320932794	1.5886573728527313	-0.4427379761041027	-0.16471168298014907	1.9665596975495165	-0.337163341992627	-0.18758372082922461	2.024291529251308	-0.41027943637852027	-0.1899799208168248	1.9722948233228212	-0.2895984612017641	-0.20205013314557937	1.8942452812732313	-0.23191878362687746	-0.23414120472429253	1.8330152837462346	-0.24959749993852362	-0.13725555081133864	1.9664496523941313	-0.39148397719801165	-0.1217488696412992	1.8967370488775752	-0.38543998445938155	-0.1449157268600622	1.8516155010807274	-0.4290422891724697
